<svg width="112" height="113" fill="none" xmlns="http://www.w3.org/2000/svg"><path d="M65.212 36.191a9.908 9.908 0 0 1 7.34 6.11 9.909 9.909 0 0 1-1.183 9.476l.405.293-.405-.293-5.043 6.996a6.072 6.072 0 0 1-3.111 2.253 6.07 6.07 0 0 1-3.84-.045 6.072 6.072 0 0 1-3.056-2.327 6.079 6.079 0 0 1-1.066-3.69 13.505 13.505 0 0 0-3.914-10.017l-.004-.004-.067-.066a6.07 6.07 0 0 1-1.743-3.423 6.075 6.075 0 0 1 .641-3.787 6.073 6.073 0 0 1 2.774-2.657l-.215-.451.215.451a6.07 6.07 0 0 1 3.81-.48l8.462 1.661ZM64.435 32.196c.897.976 2.176 1.494 3.624 1.439 1.38-.052 2.746-.628 3.842-1.636s1.784-2.322 1.952-3.693l-9.418 3.89Zm0 0a4.304 4.304 0 0 1-.838-1.34c-.755-1.91-.187-4.38 1.66-6.08 2.332-2.143 5.675-2.148 7.466-.2m-8.288 7.62 8.288-7.62m0 0c.897.975 1.305 2.292 1.13 3.73l-1.13-3.73ZM81.49 41.604c-3.486 1.377-7.194-.022-8.348-2.944-1.154-2.921.597-6.477 4.084-7.854 3.487-1.377 7.196.022 8.35 2.943 1.154 2.921-.598 6.478-4.085 7.855ZM87.681 48.921c.079 1.426-.484 2.802-1.614 3.878-1.082 1.03-2.56 1.653-4.167 1.742-2.798.155-5.205-1.366-6.047-3.498a4.638 4.638 0 0 1-.318-1.45l-.002-.029c-.14-2.843 2.384-5.402 5.782-5.59 1.607-.09 3.145.367 4.333 1.271 1.243.945 1.954 2.25 2.033 3.676Zm0 0 .5-.027m-.5.027.5-.027m0 0c.087 1.583-.541 3.098-1.77 4.267l1.77-4.267Zm-2.23-4.046ZM80.22 61.497c.654-2.55-1.143-5.346-4.185-6.16l4.184 6.16Zm0 0-.01.036c-.684 2.556-3.647 4.102-6.704 3.288l6.713-3.324Zm-10.888-2.872a4.43 4.43 0 0 0 .18 2.792c.614 1.556 2.061 2.886 3.993 3.404l-4.173-6.196Zm0 0c.683-2.555 3.646-4.102 6.703-3.287l-6.703 3.287Z" fill="#78C0DE" stroke="#000"/><path d="m3.82 97.404.47-.472 11.386 11.385-.277.275-3.02 3.015c-1.934 1.939-6.052.959-9.198-2.183-3.144-3.148-4.123-7.264-2.188-9.198l2.821-2.822h.005Z" fill="#5A6E7F"/><path d="m7.076 94.194 11.386 11.378-2.786 2.745L4.289 96.932l.326-.326.009.006 2.452-2.418Z" fill="#78C0DE"/><path d="M67.636 0C92.138 0 112 19.867 112 44.37c0 24.504-19.862 44.367-44.364 44.367a44.141 44.141 0 0 1-24.553-7.418l-24.62 24.253L7.075 94.194l24.46-24.092c-5.187-7.26-8.27-16.13-8.27-25.731C23.265 19.867 43.126 0 67.635 0Zm-.607 75.567c17.227 0 31.197-13.965 31.197-31.196 0-17.232-13.97-31.197-31.197-31.197-17.231 0-31.198 13.965-31.198 31.197 0 17.23 13.967 31.196 31.198 31.196Z" fill="#333"/></svg>